<svg width="149" height="32" viewBox="0 0 149 32" fill="none" xmlns="http://www.w3.org/2000/svg">
<path fill-rule="evenodd" clip-rule="evenodd" d="M45.8702 18.4136C47.1034 18.4136 48.1032 17.527 48.1032 16.4331C48.1032 15.3397 47.1034 14.4546 45.8702 14.4546C44.637 14.4546 43.6367 15.3397 43.6367 16.4331C43.6372 17.527 44.637 18.4136 45.8702 18.4136Z" fill="#005E9E"/>
<path fill-rule="evenodd" clip-rule="evenodd" d="M43.0581 28.656C43.0581 28.0693 42.6626 27.5612 42.115 27.5523C40.6914 27.528 36.8911 27.5523 36.8911 27.5523C36.8911 27.5523 36.9394 22.1712 36.9354 18.9069H36.9372C36.9439 18.2455 36.962 17.077 36.9534 16.6962C36.9218 15.3626 35.0215 14.946 33.9503 14.8931C32.9785 14.8443 33.0318 15.7266 33.0318 15.7266V28.9998C33.0318 29.8568 33.9229 30.0604 33.9229 30.0604H43.0684C43.0684 30.0604 43.0581 29.3578 43.0581 28.656Z" fill="#005E9E"/>
<path fill-rule="evenodd" clip-rule="evenodd" d="M55.6917 19.5032C55.2679 14.9415 57.8444 15.1601 58.7951 15.3894C59.1525 15.4453 59.1566 15.0667 59.1503 14.9588C59.1119 14.5859 58.9228 14.2693 58.6632 14.0423C57.7406 13.2354 56.0253 13.3377 56.0253 13.3377C52.9094 13.3377 51.9403 15.745 51.9403 17.7132C51.9403 18.7269 51.8414 19.5032 51.8414 19.5032H50.8998C50.3613 19.5032 50.1433 20.0904 50.1433 20.3906V21.1167H51.8161V26.0721C48.452 29.0511 47.7681 27.3658 47.7681 26.6288C47.7685 25.3141 47.7726 22.8434 47.7726 21.2383C47.7726 19.9193 45.9427 19.4886 44.8562 19.4347C43.7675 19.3803 43.9227 20.2687 43.9227 20.2687V26.8905C43.9227 29.1904 44.8029 30.2721 46.9389 30.2721C49.0202 30.2721 51.0894 28.5483 51.8681 27.6069C51.8681 27.6069 51.8681 29.4109 51.901 30.7647C51.9059 30.9654 51.9123 31.1291 51.919 31.2398C51.971 32.102 52.8002 31.996 52.8002 31.996C55.7599 31.995 55.6917 29.8175 55.6917 29.8175V21.1721H57.5393C57.9072 21.1721 58.5369 20.9737 58.5369 20.2532C58.5369 19.8142 58.5274 19.5032 58.5274 19.5032H55.6917Z" fill="#005E9E"/>
<path fill-rule="evenodd" clip-rule="evenodd" d="M69.0433 27.0654C68.0056 27.7283 66.7598 28.2667 64.8955 28.2667C63.1324 28.2667 61.8392 27.2155 61.8392 25.0429C61.8392 24.0606 62.4215 21.6322 64.6929 21.6322C65.5708 21.6139 66.0696 22.2101 66.0696 22.9756C66.0696 23.9757 64.9827 25.1779 62.6552 25.3191C63.0006 26.3736 64.1187 26.6396 65.0233 26.6396C66.3756 26.6396 69.6256 25.616 69.3593 22.4686C69.1522 20.0195 66.9304 19.2935 65.1127 19.2935C60.8569 19.2935 57.6024 22.0164 57.9053 25.7089C58.2362 29.742 61.6956 30.2594 63.9787 30.2594C66.2935 30.2594 68.4136 29.2387 69.1981 28.1026C69.3485 27.8845 69.5169 27.5918 69.5169 27.3366C69.5169 27.0532 69.3056 26.8971 69.0433 27.0654Z" fill="#005E9E"/>
<path fill-rule="evenodd" clip-rule="evenodd" d="M39.2282 10.4859V6.37927H36.138V10.4859H33.0225V0.248047H36.138V4.09302H39.2282V0.248047H42.359V10.4859H39.2282Z" fill="#ED1C24"/>
<path fill-rule="evenodd" clip-rule="evenodd" d="M49.5318 4.93409C49.5318 2.81107 49.1084 2.34247 47.6888 2.34247H46.8935V8.39299H47.6888C49.1084 8.39299 49.5318 7.86906 49.5318 5.74605V4.93409ZM47.5837 10.6666C46.2033 10.6666 45.2089 10.6117 43.8701 10.486V0.248071C45.2089 0.123299 46.164 0.0698242 47.5837 0.0698242C51.0309 0.0698242 52.5958 1.44749 52.5958 4.93409L52.5963 5.74605C52.5963 9.28749 51.0706 10.6666 47.5837 10.6666Z" fill="#ED1C24"/>
<path fill-rule="evenodd" clip-rule="evenodd" d="M56.9337 2.45315V4.2722H60.6866V6.31125H56.9337V10.4859H53.8179V0.248047H60.9782V2.45315H56.9337Z" fill="#ED1C24"/>
<path fill-rule="evenodd" clip-rule="evenodd" d="M66.1797 10.7351C63.0886 10.7351 61.5371 9.5911 61.5371 5.84227V4.87786C61.5371 1.14359 63.0886 0 66.1792 0C66.9605 0 68.5251 0.15151 69.0555 0.302547V2.46684C68.3531 2.41102 67.411 2.35614 66.5625 2.35614C65.3035 2.35567 64.6797 2.75485 64.6797 4.87786V5.84227C64.6797 7.99341 65.3035 8.39304 66.5625 8.39304C67.411 8.39304 68.3531 8.33774 69.0555 8.28194V10.4321C68.5251 10.5972 66.9605 10.7351 66.1797 10.7351Z" fill="#ED1C24"/>
<path fill-rule="evenodd" clip-rule="evenodd" d="M28.8072 30.0616V30.0612L20.6127 21.5452V21.5461H8.19448V8.64196H8.19545L0.000902725 0.126465H0V30.0616H28.8072Z" fill="#B11116"/>
<path fill-rule="evenodd" clip-rule="evenodd" d="M8.19548 8.64196H20.6128V21.5452L28.8073 30.0612V0.126465H0.000976562L8.19548 8.64196Z" fill="#ED1C24"/>
<line x1="78.0171" y1="4" x2="78.0171" y2="28" stroke="#E6EBF5"/>
<path d="M89.2791 9.436V22H86.7591V9.436H89.2791ZM97.2949 11.884C98.4829 11.884 99.4429 12.262 100.175 13.018C100.907 13.762 101.273 14.806 101.273 16.15V22H98.7529V16.492C98.7529 15.7 98.5549 15.094 98.1589 14.674C97.7629 14.242 97.2229 14.026 96.5389 14.026C95.8429 14.026 95.2909 14.242 94.8829 14.674C94.4869 15.094 94.2889 15.7 94.2889 16.492V22H91.7689V12.028H94.2889V13.27C94.6249 12.838 95.0509 12.502 95.5669 12.262C96.0949 12.01 96.6709 11.884 97.2949 11.884ZM107.485 22.162C106.669 22.162 105.937 22.018 105.289 21.73C104.641 21.43 104.125 21.028 103.741 20.524C103.369 20.02 103.165 19.462 103.129 18.85H105.667C105.715 19.234 105.901 19.552 106.225 19.804C106.561 20.056 106.975 20.182 107.467 20.182C107.947 20.182 108.319 20.086 108.583 19.894C108.859 19.702 108.997 19.456 108.997 19.156C108.997 18.832 108.829 18.592 108.493 18.436C108.169 18.268 107.647 18.088 106.927 17.896C106.183 17.716 105.571 17.53 105.091 17.338C104.623 17.146 104.215 16.852 103.867 16.456C103.531 16.06 103.363 15.526 103.363 14.854C103.363 14.302 103.519 13.798 103.831 13.342C104.155 12.886 104.611 12.526 105.199 12.262C105.799 11.998 106.501 11.866 107.305 11.866C108.493 11.866 109.441 12.166 110.149 12.766C110.857 13.354 111.247 14.152 111.319 15.16H108.907C108.871 14.764 108.703 14.452 108.403 14.224C108.115 13.984 107.725 13.864 107.233 13.864C106.777 13.864 106.423 13.948 106.171 14.116C105.931 14.284 105.811 14.518 105.811 14.818C105.811 15.154 105.979 15.412 106.315 15.592C106.651 15.76 107.173 15.934 107.881 16.114C108.601 16.294 109.195 16.48 109.663 16.672C110.131 16.864 110.533 17.164 110.869 17.572C111.217 17.968 111.397 18.496 111.409 19.156C111.409 19.732 111.247 20.248 110.923 20.704C110.611 21.16 110.155 21.52 109.555 21.784C108.967 22.036 108.277 22.162 107.485 22.162ZM115.998 13.468C116.322 13.012 116.766 12.634 117.33 12.334C117.906 12.022 118.56 11.866 119.292 11.866C120.144 11.866 120.912 12.076 121.596 12.496C122.292 12.916 122.838 13.516 123.234 14.296C123.642 15.064 123.846 15.958 123.846 16.978C123.846 17.998 123.642 18.904 123.234 19.696C122.838 20.476 122.292 21.082 121.596 21.514C120.912 21.946 120.144 22.162 119.292 22.162C118.56 22.162 117.912 22.012 117.348 21.712C116.796 21.412 116.346 21.034 115.998 20.578V26.752H113.478V12.028H115.998V13.468ZM121.272 16.978C121.272 16.378 121.146 15.862 120.894 15.43C120.654 14.986 120.33 14.65 119.922 14.422C119.526 14.194 119.094 14.08 118.626 14.08C118.17 14.08 117.738 14.2 117.33 14.44C116.934 14.668 116.61 15.004 116.358 15.448C116.118 15.892 115.998 16.414 115.998 17.014C115.998 17.614 116.118 18.136 116.358 18.58C116.61 19.024 116.934 19.366 117.33 19.606C117.738 19.834 118.17 19.948 118.626 19.948C119.094 19.948 119.526 19.828 119.922 19.588C120.33 19.348 120.654 19.006 120.894 18.562C121.146 18.118 121.272 17.59 121.272 16.978ZM126.955 10.84C126.511 10.84 126.139 10.702 125.839 10.426C125.551 10.138 125.407 9.784 125.407 9.364C125.407 8.944 125.551 8.596 125.839 8.32C126.139 8.032 126.511 7.888 126.955 7.888C127.399 7.888 127.765 8.032 128.053 8.32C128.353 8.596 128.503 8.944 128.503 9.364C128.503 9.784 128.353 10.138 128.053 10.426C127.765 10.702 127.399 10.84 126.955 10.84ZM128.197 12.028V22H125.677V12.028H128.197ZM133.207 13.576C133.531 13.048 133.951 12.634 134.467 12.334C134.995 12.034 135.595 11.884 136.267 11.884V14.53H135.601C134.809 14.53 134.209 14.716 133.801 15.088C133.405 15.46 133.207 16.108 133.207 17.032V22H130.687V12.028H133.207V13.576ZM147.234 16.798C147.234 17.158 147.21 17.482 147.162 17.77H139.872C139.932 18.49 140.184 19.054 140.628 19.462C141.072 19.87 141.618 20.074 142.266 20.074C143.202 20.074 143.868 19.672 144.264 18.868H146.982C146.694 19.828 146.142 20.62 145.326 21.244C144.51 21.856 143.508 22.162 142.32 22.162C141.36 22.162 140.496 21.952 139.728 21.532C138.972 21.1 138.378 20.494 137.946 19.714C137.526 18.934 137.316 18.034 137.316 17.014C137.316 15.982 137.526 15.076 137.946 14.296C138.366 13.516 138.954 12.916 139.71 12.496C140.466 12.076 141.336 11.866 142.32 11.866C143.268 11.866 144.114 12.07 144.858 12.478C145.614 12.886 146.196 13.468 146.604 14.224C147.024 14.968 147.234 15.826 147.234 16.798ZM144.624 16.078C144.612 15.43 144.378 14.914 143.922 14.53C143.466 14.134 142.908 13.936 142.248 13.936C141.624 13.936 141.096 14.128 140.664 14.512C140.244 14.884 139.986 15.406 139.89 16.078H144.624Z" fill="url(#paint0_linear_33_973)"/>
<defs>
<linearGradient id="paint0_linear_33_973" x1="84.2059" y1="10.1395" x2="149.095" y2="10.4023" gradientUnits="userSpaceOnUse">
<stop stop-color="#ED1C24"/>
<stop offset="1" stop-color="#005E9E"/>
</linearGradient>
</defs>
</svg>
